<svg width="35" height="35" viewBox="0 0 35 35" fill="white" xmlns="http://www.w3.org/2000/svg">
<g id="Github - Negative" clip-path="url(#clip0_1_16)">
<path id="Vector" fill-rule="evenodd" clip-rule="evenodd" d="M17.5004 0.729164C13.3459 0.73132 9.32769 2.20275 6.16418 4.88034C3.00067 7.55794 0.89819 11.2671 0.232667 15.3446C-0.432857 19.4221 0.381974 23.602 2.53148 27.1369C4.68098 30.6719 8.02497 33.3313 11.9655 34.6397C12.8349 34.8011 13.1623 34.2623 13.1623 33.8042C13.1623 33.346 13.1449 32.0177 13.1391 30.5655C8.27078 31.6172 7.24206 28.5111 7.24206 28.5111C6.44805 26.4942 5.30051 25.964 5.30051 25.964C3.7125 24.8864 5.41933 24.9066 5.41933 24.9066C7.17831 25.0305 8.10272 26.7016 8.10272 26.7016C9.66176 29.3611 12.1973 28.5918 13.1942 28.1423C13.3507 27.0157 13.8056 26.2493 14.307 25.8142C10.4181 25.3762 6.33214 23.8837 6.33214 17.2162C6.30803 15.4871 6.95336 13.8149 8.1346 12.5456C7.95493 12.1076 7.35507 10.3385 8.30556 7.93542C8.30556 7.93542 9.77477 7.46864 13.1189 9.71897C15.9872 8.93903 19.0136 8.93903 21.8819 9.71897C25.2231 7.46864 26.6894 7.93542 26.6894 7.93542C27.6428 10.3327 27.0429 12.1018 26.8633 12.5456C28.0482 13.8151 28.6949 15.4902 28.6686 17.222C28.6686 23.9038 24.574 25.3762 20.6793 25.8055C21.3052 26.3472 21.8645 27.4047 21.8645 29.0298C21.8645 31.3579 21.8442 33.2308 21.8442 33.8042C21.8442 34.2681 22.1601 34.8097 23.0468 34.6397C26.9878 33.3312 30.3322 30.6712 32.4816 27.1357C34.6311 23.6001 35.4455 19.4196 34.7792 15.3417C34.1129 11.2639 32.0094 7.55468 28.8449 4.87755C25.6803 2.20041 21.6611 0.729953 17.5062 0.729164H17.5004Z" fill="white"/>
<path id="Vector_2" d="M11.7073 29.1306C11.7073 29.2718 11.545 29.3928 11.3363 29.3957C11.1277 29.3986 10.9567 29.2833 10.9567 29.1421C10.9567 29.0009 11.119 28.8799 11.3276 28.877C11.5363 28.8742 11.7073 28.9865 11.7073 29.1306Z" fill="white"/>
<path id="Vector_3" d="M13.0403 28.9087C13.0663 29.0499 12.9214 29.1969 12.7128 29.2314C12.5042 29.266 12.3216 29.1825 12.2955 29.0442C12.2694 28.9059 12.4201 28.756 12.623 28.7186C12.8258 28.6811 13.0142 28.7676 13.0403 28.9087Z" fill="white"/>
<path id="Vector_4" d="M10.2757 29.0326C10.2322 29.1681 10.0352 29.2286 9.8381 29.1709C9.64105 29.1133 9.51064 28.952 9.54832 28.8137C9.58599 28.6753 9.78594 28.612 9.98589 28.6754C10.1858 28.7387 10.3133 28.8915 10.2757 29.0326Z" fill="white"/>
<path id="Vector_5" d="M8.963 28.4679C8.86737 28.5745 8.67322 28.5457 8.51384 28.4016C8.35446 28.2576 8.31677 28.0616 8.4124 27.9579C8.50803 27.8542 8.70219 27.883 8.86736 28.0242C9.03254 28.1654 9.06442 28.3642 8.963 28.4679Z" fill="white"/>
<path id="Vector_6" d="M8.02703 27.4998C7.91981 27.5747 7.73723 27.4998 7.63581 27.3499C7.60776 27.3231 7.58546 27.2908 7.57023 27.2552C7.55499 27.2195 7.54713 27.1812 7.54713 27.1425C7.54713 27.1038 7.55499 27.0654 7.57023 27.0298C7.58546 26.9941 7.60776 26.9619 7.63581 26.935C7.74303 26.863 7.9256 26.935 8.02703 27.082C8.12845 27.2289 8.13135 27.4249 8.02703 27.4998Z" fill="white"/>
<path id="Vector_7" d="M7.3373 26.4999C7.27728 26.53 7.20862 26.5384 7.14307 26.5237C7.07753 26.509 7.01916 26.472 6.97797 26.4193C6.86495 26.2982 6.84176 26.1311 6.92869 26.0562C7.01563 25.9813 7.17212 26.0159 7.28514 26.1369C7.39815 26.2579 7.42423 26.425 7.3373 26.4999Z" fill="white"/>
<path id="Vector_8" d="M6.6273 25.7133C6.58963 25.7998 6.45053 25.8257 6.33752 25.7652C6.2245 25.7047 6.14047 25.5923 6.18104 25.503C6.22161 25.4137 6.35781 25.3906 6.47082 25.4511C6.58384 25.5116 6.67077 25.6269 6.6273 25.7133Z" fill="white"/>
</g>
<defs>
<clipPath id="clip0_1_16">
<rect width="35" height="35" fill="white"/>
</clipPath>
</defs>
</svg>
