<svg width="35" height="35" viewBox="0 0 35 35" fill="none" xmlns="http://www.w3.org/2000/svg">
<g id="location-pin">
<g id="Icon">
<path fill-rule="evenodd" clip-rule="evenodd" d="M11.6667 14.5833C11.6667 11.3617 14.2783 8.75 17.5 8.75C20.7217 8.75 23.3333 11.3617 23.3333 14.5833C23.3333 17.805 20.7217 20.4167 17.5 20.4167C14.2783 20.4167 11.6667 17.805 11.6667 14.5833ZM17.5 11.6667C15.8892 11.6667 14.5833 12.9725 14.5833 14.5833C14.5833 16.1942 15.8892 17.5 17.5 17.5C19.1108 17.5 20.4167 16.1942 20.4167 14.5833C20.4167 12.9725 19.1108 11.6667 17.5 11.6667Z" fill="black"/>
<path fill-rule="evenodd" clip-rule="evenodd" d="M4.375 14.5833C4.375 7.3346 10.2513 1.45834 17.5 1.45834C24.7487 1.45834 30.625 7.3346 30.625 14.5833C30.625 18.2673 28.9525 21.4962 26.6762 24.4519C24.7741 26.9218 22.3395 29.3353 19.9075 31.7462C19.4474 32.2023 18.9874 32.6583 18.5312 33.1145L17.5 34.1457L16.4688 33.1145C16.0126 32.6583 15.5526 32.2023 15.0925 31.7462C12.6605 29.3353 10.2259 26.9218 8.32376 24.4519C6.04746 21.4962 4.375 18.2673 4.375 14.5833ZM17.5 4.375C11.8621 4.375 7.29167 8.94543 7.29167 14.5833C7.29167 17.3426 8.53587 19.9472 10.6346 22.6723C12.4066 24.9732 14.6748 27.2231 17.1096 29.6381C17.2393 29.7668 17.3694 29.8959 17.5 30.0255C17.6306 29.8959 17.7607 29.7668 17.8904 29.6381C20.3252 27.2231 22.5934 24.9732 24.3654 22.6723C26.4641 19.9472 27.7083 17.3426 27.7083 14.5833C27.7083 8.94543 23.1379 4.375 17.5 4.375Z" fill="black"/>
</g>
</g>
</svg>
