<svg width="35" height="35" viewBox="0 0 35 35" fill="white" xmlns="http://www.w3.org/2000/svg">
<g id="Twitter - Negative">
<path id="Vector" d="M11.0106 31.7188C24.2149 31.7188 31.4392 20.7765 31.4392 11.2903C31.4392 10.9827 31.4323 10.6682 31.4187 10.3606C32.824 9.34428 34.0368 8.08543 35 6.6432C33.6912 7.22552 32.3016 7.60583 30.8786 7.77113C32.3769 6.87305 33.4987 5.46221 34.0361 3.80014C32.6266 4.63546 31.0852 5.2247 29.4779 5.54262C28.395 4.39192 26.9631 3.63002 25.4037 3.37472C23.8443 3.11942 22.2442 3.38493 20.8509 4.1302C19.4575 4.87548 18.3485 6.05901 17.6952 7.49781C17.0419 8.93661 16.8808 10.5505 17.2368 12.0901C14.3828 11.9469 11.5907 11.2055 9.04164 9.91396C6.49254 8.62245 4.2433 6.80966 2.43975 4.59311C1.52308 6.17354 1.24258 8.04371 1.65525 9.82353C2.06792 11.6033 3.1428 13.1593 4.66143 14.175C3.52133 14.1388 2.40621 13.8319 1.4082 13.2795V13.3684C1.40718 15.0269 1.98056 16.6347 3.03087 17.9183C4.08118 19.2019 5.5436 20.0821 7.16953 20.4094C6.11341 20.6984 5.00497 20.7405 3.92998 20.5325C4.38879 21.9588 5.28146 23.2064 6.48342 24.101C7.68537 24.9956 9.13663 25.4926 10.6347 25.5227C8.09145 27.5204 4.94984 28.604 1.71582 28.5989C1.14229 28.598 0.569332 28.5628 0 28.4936C3.28542 30.6014 7.10723 31.7208 11.0106 31.7188Z" fill="white"/>
</g>
</svg>
